<svg xmlns="http://www.w3.org/2000/svg" viewBox="0 0 445.24 148.07"><defs><style>.cls-1{fill:#fff;}</style></defs><g id="Calque_2" data-name="Calque 2"><g id="Calque_3" data-name="Calque 3"><path class="cls-1" d="M176.41,97.1h15.46V73.56H177.52v-11h25.93V97.1H216.7v11H176.41ZM206.3,49a8.7,8.7,0,0,1-.68,3.45,8.23,8.23,0,0,1-1.89,2.75,9.08,9.08,0,0,1-2.8,1.84,8.49,8.49,0,0,1-3.36.69,8.38,8.38,0,0,1-3.41-.69,9.09,9.09,0,0,1-2.75-1.84,8.23,8.23,0,0,1-1.89-2.75,9,9,0,0,1,0-6.9,8.41,8.41,0,0,1,1.89-2.77A9.44,9.44,0,0,1,194.16,41a8.39,8.39,0,0,1,3.41-.7,8.5,8.5,0,0,1,3.36.7,9.42,9.42,0,0,1,2.8,1.83,8.41,8.41,0,0,1,1.89,2.77A8.64,8.64,0,0,1,206.3,49Z"/><path class="cls-1" d="M232.24,43.76H272.9V55.35H244.38V70.07h27.41V81.65H244.38V96.56H274v11.58H232.24Z"/><path class="cls-1" d="M318.42,62.52H331.2L320.16,84v1.66l11.69,22.53H318.51L310,90.3H308.3l-8.55,17.84H286.41l11.68-22.53V84L287,62.52h12.88l8.46,16.75H310Z"/><path class="cls-1" d="M354.65,89.1a8.93,8.93,0,0,0,1,3.73A9,9,0,0,0,358,95.77a11.33,11.33,0,0,0,3.5,1.93,12.55,12.55,0,0,0,4.18.69,12,12,0,0,0,6.62-1.51,9.07,9.07,0,0,0,3.31-3.64l9.93,5.52a19.46,19.46,0,0,1-2.29,3.63,16.08,16.08,0,0,1-3.82,3.45,21.33,21.33,0,0,1-5.7,2.58,27.55,27.55,0,0,1-7.87,1,25.63,25.63,0,0,1-9.38-1.65,20.87,20.87,0,0,1-7.31-4.79,21.48,21.48,0,0,1-4.78-7.63,28.62,28.62,0,0,1-1.7-10.21V84.6A24.83,24.83,0,0,1,344.49,75a21.92,21.92,0,0,1,4.92-7.36,22.81,22.81,0,0,1,7.31-4.74,23.66,23.66,0,0,1,9-1.69,22.7,22.7,0,0,1,10.12,2.07,21.76,21.76,0,0,1,7,5.24,20.62,20.62,0,0,1,4,7,23,23,0,0,1,1.29,7.4V89.1Zm11-17.38A11,11,0,0,0,358.42,74a10.37,10.37,0,0,0-3.58,5.2h21.52a8.19,8.19,0,0,0-3.45-5.33A12.08,12.08,0,0,0,365.6,71.72Z"/><path class="cls-1" d="M445.24,91.41a22.05,22.05,0,0,1-7.4,13q-5.83,5-15.59,5a27.65,27.65,0,0,1-9.43-1.57,22.09,22.09,0,0,1-7.58-4.5,20.53,20.53,0,0,1-5.06-7.27,24.84,24.84,0,0,1-1.84-9.84v-1.1a25.51,25.51,0,0,1,1.84-9.93,22.14,22.14,0,0,1,5.1-7.55,22.57,22.57,0,0,1,7.63-4.78,26.26,26.26,0,0,1,9.34-1.65q9.57,0,15.5,5a21.83,21.83,0,0,1,7.49,13.06l-11.4,2.94a11.89,11.89,0,0,0-3.5-7q-2.94-2.94-8.27-2.94a11.92,11.92,0,0,0-4.69.92,11.39,11.39,0,0,0-3.87,2.62A12.52,12.52,0,0,0,410.89,80a14.9,14.9,0,0,0-1,5.48V86a14,14,0,0,0,1,5.37,11.29,11.29,0,0,0,2.62,3.92,10.83,10.83,0,0,0,3.87,2.34,14,14,0,0,0,4.69.78c3.55,0,6.27-.88,8.14-2.67a12.69,12.69,0,0,0,3.63-7.17Z"/><path class="cls-1" d="M63.32,26.65a21,21,0,0,0-18.89,22.4,7.92,7.92,0,0,1-3.87,7.3,8,8,0,0,1-4.22,1.14,8.29,8.29,0,0,1-4-1.14,20.9,20.9,0,0,0-11.16-3.26,22.61,22.61,0,0,0-2.46.18A21,21,0,0,0,21.14,95h0a16.23,16.23,0,0,0,2-.08,21,21,0,0,0,18.89-19,20.69,20.69,0,0,0,0-3.34,7.89,7.89,0,0,1,3.87-7.29,7.8,7.8,0,0,1,4.22-1.14,7.43,7.43,0,0,1,4,1.14,20.89,20.89,0,0,0,11.16,3.25,22.48,22.48,0,0,0,2.46-.09,21,21,0,0,0-2.46-41.82,15.12,15.12,0,0,0-2,0"/><path class="cls-1" d="M107.51,53.18A21,21,0,0,0,88.62,75.59a7.93,7.93,0,0,1-3.78,7.2l-.08.09A7.82,7.82,0,0,1,80.54,84a8.26,8.26,0,0,1-4-1.14,20.92,20.92,0,0,0-11.16-3.25,18.82,18.82,0,0,0-2.29.09A21,21,0,0,0,44.43,102a7.92,7.92,0,0,1-3.87,7.3,8,8,0,0,1-4.22,1.14,8.29,8.29,0,0,1-4-1.14,20.9,20.9,0,0,0-11.16-3.26,22.61,22.61,0,0,0-2.46.18,21,21,0,0,0,2.38,41.82,15.25,15.25,0,0,0,2-.09,20.91,20.91,0,0,0,18.8-19,20.69,20.69,0,0,0,0-3.34,7.86,7.86,0,0,1,3.86-7.21l.09-.08a7.75,7.75,0,0,1,4.22-1.15,7.34,7.34,0,0,1,4,1.15,21,21,0,0,0,11.16,3.25c.79,0,1.58-.09,2.37-.09A20.67,20.67,0,0,0,86.16,99.22,7.89,7.89,0,0,1,90,91.93a7.79,7.79,0,0,1,4.21-1.14,7.44,7.44,0,0,1,4.05,1.14,20.86,20.86,0,0,0,11.15,3.25A22.61,22.61,0,0,0,111.9,95a21,21,0,0,0-2.46-41.82,6.9,6.9,0,0,0-1.93,0"/><circle class="cls-1" cx="21.01" cy="21.01" r="21.01"/></g></g></svg>